<svg width="1545" height="471" viewBox="0 0 1545 471" fill="none" xmlns="http://www.w3.org/2000/svg">
<path d="M488.277 413.317V379.791L425.086 431.765V461.794L488.277 413.317Z" fill="white"/>
<path d="M922.041 413.022V379.497L985.232 431.47V461.499L922.041 413.022Z" fill="white"/>
<path d="M176.464 327.969L204.016 282.049V461.793L176.464 433.585V343.713V327.969Z" fill="white"/>
<path d="M1301.5 263.681H1329.05V397.505H1301.5V263.681Z" fill="white"/>
<path d="M175.808 168.561H184.992L203.36 143.633V308.945V261.836L175.808 308.945V168.561Z" fill="white"/>
<path d="M1411.71 242.689H1424.83V263.93H1440.57V402.753H1411.71V242.689Z" fill="white"/>
<path d="M292.576 183.649H306.286V199.667L321.44 209.889V205.387V304.353H292.576V183.649Z" fill="white"/>
<path d="M586.463 350.273H600.174V336.693H615.327V247.937H586.463V350.273Z" fill="white"/>
<path d="M1077.15 190.209H1104.7V461.793H1088.86V393.897H1077.15V190.209Z" fill="white"/>
<path d="M1108.64 293.857H1112.57V460.481H1108.64V293.857Z" fill="white"/>
<path d="M1249.02 289.921H1251.65V430.305H1249.02V289.921Z" fill="white"/>
<path d="M1108.64 270.241H1109.95L1112.57 276.549V303.041H1108.64V270.241Z" fill="white"/>
<path d="M1077.15 295.169H1081.09V461.793H1077.15V295.169Z" fill="white"/>
<path d="M478.879 191.521H496.952V199.574H516.927V384.385H506.464V413.249L478.879 413.249V191.521Z" fill="white"/>
<path d="M467.071 392.257L440.831 412.593V225.633L467.071 225.633V392.257Z" fill="white"/>
<path d="M778.015 360.769V343.713L783.263 335.841V368.641L778.015 360.769Z" fill="white"/>
<path d="M787.199 421.049V272.865H814.751V435.553H803.599L787.199 421.049Z" fill="white"/>
<path d="M1033.85 431.617V299.105H1056.16V431.617H1033.85Z" fill="white"/>
<path d="M787.199 224.321V220.385H814.751V224.321H787.199Z" fill="white"/>
<path d="M1308.06 236.129V229.569H1325.12V236.129H1308.06Z" fill="white"/>
<path d="M1431.39 264.993V237.441H1435.98L1440.57 243.345V264.993H1431.39Z" fill="white"/>
<path d="M132.512 211.201V196.769L169.248 183.649V211.201H132.512Z" fill="white"/>
<path d="M1204.41 276.801V278.113H1218.85V276.801H1204.41Z" fill="white"/>
<path d="M157.44 331.905V333.217H171.872V331.905H157.44Z" fill="white"/>
<path d="M1204.41 267.617V270.241H1218.85V267.617H1204.41Z" fill="white"/>
<path d="M1204.41 280.737V282.049H1218.85V280.737H1204.41Z" fill="white"/>
<path d="M1204.41 272.865V274.177H1218.85V272.865H1204.41Z" fill="white"/>
<path d="M157.44 327.969V329.281H171.872V327.969H157.44Z" fill="white"/>
<path d="M1332.99 358.145V263.681H1334.3V358.145H1332.99Z" fill="white"/>
<path d="M818.687 316.161V121.985H819.999V316.161H818.687Z" fill="white"/>
<path d="M810.651 428.557L842.539 460.445L841.611 461.373L809.723 429.485L810.651 428.557Z" fill="white"/>
<path d="M910.399 347.936L963.021 400.558L962.094 401.486L909.471 348.863L910.399 347.936Z" fill="white"/>
<path d="M962.622 197.379L1058.05 101.951L1057.12 101.024L961.695 196.451L962.622 197.379Z" fill="white"/>
<path d="M612.867 428.993L580.979 460.881L581.907 461.809L613.795 429.92L612.867 428.993Z" fill="white"/>
<path d="M613.103 213.871L591.145 191.913L592.073 190.985L614.031 212.943L613.103 213.871Z" fill="white"/>
<path d="M511.679 461.793V324.033H516.927V461.793H511.679Z" fill="white"/>
<path d="M1439.26 470.977V372.577H1440.57V470.977H1439.26Z" fill="white"/>
<path d="M284.704 314.849V216.449H286.016V314.849H284.704Z" fill="white"/>
<path d="M278.028 460.816L12.4076 195.196L11.7387 195.864L277.359 461.485L278.028 460.816Z" fill="white"/>
<path d="M547.103 24.8972L294.448 277.553L293.507 276.613L546.163 23.9569L547.103 24.8972Z" fill="white"/>
<path d="M238.194 329.686L183.382 384.497L184.502 385.617L239.314 330.806L238.194 329.686Z" fill="white"/>
<path d="M284.704 183.649V177.089H286.016V183.649H284.704Z" fill="white"/>
<path d="M1301.5 257.121V243.345H1324.11V229.569H1424.83V257.121H1301.5Z" fill="white"/>
<path d="M720.287 406.689V405.377H687.487V406.689H720.287Z" fill="white"/>
<path d="M13.12 196.769V183.649H0V196.769H13.12Z" fill="white"/>
<path d="M780.639 267.617V226.945H891.643V242.659H906.927V260.222H915.775V267.617H780.639Z" fill="white"/>
<path d="M1056.16 264.993V241.377H1060.09V264.993H1056.16Z" fill="white"/>
<path d="M1332.99 264.993V263.681H1374.97V264.993H1332.99Z" fill="white"/>
<path d="M284.704 338.465V310.913H321.44V338.465H284.704Z" fill="white"/>
<path d="M247.968 338.465V327.969H284.704V338.465H247.968Z" fill="white"/>
<path d="M209.92 352.897V327.969H321.44V352.897H209.92Z" fill="white"/>
<path d="M586.463 215.137V209.889H614.015V215.137H586.463Z" fill="white"/>
<path d="M369.983 226.945V225.633H436.895V226.945H369.983Z" fill="white"/>
<path d="M375.231 428.993V427.681H442.143V428.993H375.231Z" fill="white"/>
<path d="M337.184 221.697V202.017H467.071V221.697H337.184Z" fill="white"/>
<path d="M524.799 245.313V217.761H602.207V245.313H524.799Z" fill="white"/>
<path d="M1222.78 460.481V432.929H1310.69V460.481H1222.78Z" fill="white"/>
<path d="M1222.78 289.921V267.617H1296.25V289.921H1222.78Z" fill="white"/>
<path d="M722.911 263.681V230.881H778.015V263.681H722.911Z" fill="white"/>
<path d="M648.127 263.681V232.193H684.863V263.681H648.127Z" fill="white"/>
<path d="M818.687 368.641V335.841H888.66L902.655 351.585V368.641H818.687Z" fill="white"/>
<path d="M1315.93 432.929H1318.56V461.793H1315.93V432.929Z" fill="white"/>
<path d="M1255.58 430.305V292.545H1284.45V430.305H1255.58Z" fill="white"/>
<path d="M305.696 191.552V192.864H591.711V191.552H305.696Z" fill="white"/>
<path d="M624.511 191.552V192.864H810.815V191.552H624.511Z" fill="white"/>
<path d="M524.799 352.897V354.209H619.263V352.897H524.799Z" fill="white"/>
<path d="M602.207 245.313V217.761H616.74L633.695 239.409V245.313H602.207Z" fill="white"/>
<path d="M1119.13 461.793V451.133H1114.73V444.737H1100.77V461.793H1119.13Z" fill="white"/>
<path d="M1339.55 434.241L1358.71 406.689H1444.51V434.241H1339.55Z" fill="white"/>
<path d="M1301.48 396.016L1324.98 372.517L1363.26 410.789L1339.76 434.288L1301.48 396.016Z" fill="white"/>
<path d="M1436.46 262.494L1418.07 280.885L1388.11 250.927L1406.5 232.536L1436.46 262.494Z" fill="white"/>
<path d="M209.92 211.201V183.649H292.576V211.201H209.92Z" fill="white"/>
<path d="M1119.13 434.241V461.793L1207.04 461.793V455.233L1189.77 434.241H1119.13Z" fill="white"/>
<path d="M1053.53 461.793V431.617H1056.16V461.793H1053.53Z" fill="white"/>
<path d="M624.511 263.681V249.249H648.127V263.681H624.511Z" fill="white"/>
<path d="M516.927 384.385V356.833H589.087V384.385L516.927 384.385Z" fill="white"/>
<path d="M687.487 401.441V228.257H720.287V401.441H687.487Z" fill="white"/>
<path d="M615.327 431.617V406.689H629.759L623.855 417.595L615.327 431.617Z" fill="white"/>
<path d="M599.583 376.513V360.769H615.327V376.513H599.583Z" fill="white"/>
<path d="M638.943 258.433V232.193H649.439V258.433H638.943Z" fill="white"/>
<path d="M337.184 461.793V431.617H418.527V461.793H337.184Z" fill="white"/>
<path d="M161.376 461.793V436.865H174.496L198.768 461.793H161.376Z" fill="white"/>
<path d="M337.184 461.793H276.832V460.481H337.184V461.793Z" fill="white"/>
<path d="M334.56 456.545V455.233H325.376V456.545H334.56Z" fill="white"/>
<path d="M334.56 452.609V451.297H325.376V452.609H334.56Z" fill="white"/>
<path d="M372.607 435.553H337.184V225.633H366.408V243.456H372.607V435.553Z" fill="white"/>
<path d="M1045.66 249.249V272.865H921.023V249.249H1045.66Z" fill="white"/>
<path d="M1077.15 431.617V461.793H990.559V431.617H1077.15Z" fill="white"/>
<path d="M1061.41 418.497V461.793H1060.09V418.497H1061.41Z" fill="white"/>
<path d="M955.135 240.065V245.313H921.023V240.065H955.135Z" fill="white"/>
<path d="M819.999 118.049V119.361H810.815V118.049H819.999Z" fill="white"/>
<path d="M819.999 114.113V115.425H810.815V114.113H819.999Z" fill="white"/>
<path d="M819.999 110.177V111.489H810.815V110.177H819.999Z" fill="white"/>
<path d="M729.471 226.945H788.511V228.257H729.471V226.945Z" fill="white"/>
<path d="M842.303 460.481H1199.17V461.793H842.303V460.481Z" fill="white"/>
<path d="M582.527 461.793H461.823V460.481H582.527V461.793Z" fill="white"/>
<path d="M1060.09 241.377H1061.41V423.745H1060.09L1060.09 241.377Z" fill="white"/>
<path d="M1316.86 434.233L1315.93 433.305L1371 378.238L1371.93 379.166L1316.86 434.233Z" fill="white"/>
<path d="M1534.97 338.923L1533.69 340.205L1194.77 1.28135L1196.05 0L1534.97 338.923Z" fill="white"/>
<path d="M1380.34 364.31L1381.1 365.067L1534.17 211.99L1533.42 211.233L1380.34 364.31Z" fill="white"/>
<path d="M961.695 276.832H963.007V402.783H961.695V276.832Z" fill="white"/>
<path d="M961.695 195.457H963.007V245.313H961.695V195.457Z" fill="white"/>
<path d="M1028.61 241.377H1056.16V296.481H1033.43V290.458H1028.61V241.377Z" fill="white"/>
<path d="M955.135 276.801H921.023V427.681H925.287V424.206H955.135V427.681V276.801Z" fill="white"/>
<path d="M587.775 356.833H603.017V343.713H615.327V362.339H600.281L615.327 373.589L615.327 431.617H587.775V356.833Z" fill="white"/>
<path d="M1531.1 200.705H1544.22V213.825H1531.1V200.705Z" fill="white"/>
<path d="M1119.13 432.929H1222.78L1222.78 434.241H1119.13V432.929Z" fill="white"/>
</svg>
